<svg xmlns="http://www.w3.org/2000/svg" width="17.183" height="17.183"><path d="M8.591 0a8.591 8.591 0 108.591 8.591A8.59 8.59 0 008.591 0zm6.929 8.591a6.9 6.9 0 01-.374 2.231h-.7a.547.547 0 01-.395-.166l-1.109-1.129a.413.413 0 010-.579l.433-.433v-.3a.393.393 0 00-.114-.277l-.326-.326a.393.393 0 00-.277-.114H12.1a.392.392 0 01-.277-.669l.326-.326a.393.393 0 01.277-.114h1.109a.393.393 0 00.391-.391V5.67a.393.393 0 00-.391-.391h-1.268a.556.556 0 00-.554.554v.156a.556.556 0 01-.378.527l-1.095.364a.276.276 0 00-.191.263v.076a.278.278 0 01-.277.277h-.554a.278.278 0 01-.277-.277.278.278 0 00-.277-.282h-.107a.282.282 0 00-.249.152l-.326.648a.552.552 0 01-.5.3h-.761a.556.556 0 01-.554-.554v-.867a.556.556 0 01.163-.391l.7-.7a.857.857 0 00.249-.606.279.279 0 01.191-.263l1.386-.461A.4.4 0 009 4.105l.928-.928a.392.392 0 00-.277-.669h-.713l-.554.554v.275a.278.278 0 01-.277.277h-.555a.278.278 0 01-.277-.277v-.691a.279.279 0 01.111-.222l1-.752c.066 0 .132-.01.2-.01a6.937 6.937 0 016.934 6.929zM4.507 4.888a.393.393 0 01.114-.277l.88-.88a.392.392 0 01.669.277v.554a.393.393 0 01-.114.277l-.326.326a.393.393 0 01-.277.114H4.9a.393.393 0 01-.393-.391zm4.434 10.614v-.246a.556.556 0 00-.554-.554h-.7a2.4 2.4 0 01-1.226-.409l-.769-.579a1.573 1.573 0 01-.63-1.261v-.828a1.574 1.574 0 01.766-1.351l1.486-.89a1.6 1.6 0 01.811-.225H9.2a1.58 1.58 0 011.025.378l1.5 1.285h.634a1.107 1.107 0 01.783.326l.6.6a.635.635 0 00.447.184h.464a6.916 6.916 0 01-5.712 3.57z" fill="#fff"/></svg>
