<svg xmlns="http://www.w3.org/2000/svg" width="16.337" height="16.367"><path d="M15.833 12v2.313a1.542 1.542 0 01-1.681 1.542 15.259 15.259 0 01-6.654-2.367 15.036 15.036 0 01-4.626-4.626A15.259 15.259 0 01.507 2.181 1.542 1.542 0 012.042.5h2.313a1.542 1.542 0 011.542 1.326 9.9 9.9 0 00.536 2.167A1.542 1.542 0 016.09 5.62l-.98.98a12.337 12.337 0 004.623 4.626l.979-.979a1.542 1.542 0 011.631-.347 9.9 9.9 0 002.167.54A1.542 1.542 0 0115.833 12z" fill="none" stroke="#fff" stroke-linecap="round" stroke-linejoin="round"/></svg>
