<svg xmlns="http://www.w3.org/2000/svg" width="22" height="22"><defs><style>.a{fill:none;stroke:#0077f0;stroke-linecap:round;stroke-linejoin:round}</style></defs><path class="a" d="M13.863 11A2.864 2.864 0 1 1 11 8.136 2.864 2.864 0 0 1 13.863 11Z"/><path class="a" d="M18.064 13.864a1.575 1.575 0 0 0 .315 1.737l.057.057a1.91 1.91 0 1 1-2.7 2.7l-.057-.057a1.588 1.588 0 0 0-2.692 1.126v.162a1.909 1.909 0 1 1-3.818 0V19.5a1.575 1.575 0 0 0-1.031-1.441 1.575 1.575 0 0 0-1.737.315l-.057.057a1.91 1.91 0 1 1-2.7-2.7l.057-.057a1.588 1.588 0 0 0-1.126-2.692h-.166a1.909 1.909 0 0 1 0-3.818H2.5a1.575 1.575 0 0 0 1.436-1.028A1.575 1.575 0 0 0 3.621 6.4l-.057-.057a1.91 1.91 0 1 1 2.7-2.7l.057.057a1.575 1.575 0 0 0 1.737.315h.076a1.575 1.575 0 0 0 .955-1.441v-.165a1.909 1.909 0 0 1 3.818 0V2.5A1.588 1.588 0 0 0 15.6 3.621l.057-.057a1.91 1.91 0 1 1 2.7 2.7l-.057.057a1.575 1.575 0 0 0-.315 1.737v.076a1.575 1.575 0 0 0 1.441.955h.162a1.909 1.909 0 1 1 0 3.818H19.5a1.575 1.575 0 0 0-1.441.955Z"/></svg>
