<svg xmlns="http://www.w3.org/2000/svg" width="40.83" height="40.83"><defs><style>.a{fill:#fff}</style></defs><path class="a" d="M40.171 6.585a.659.659 0 0 0 .659-.659V.659A.659.659 0 0 0 40.171 0H34.9a.659.659 0 0 0-.659.659v1.976H6.585V.659A.659.659 0 0 0 5.927 0H.659A.659.659 0 0 0 0 .659v5.268a.659.659 0 0 0 .659.659h1.976v27.658H.659A.659.659 0 0 0 0 34.9v5.268a.659.659 0 0 0 .659.659h5.268a.659.659 0 0 0 .659-.659V38.2h27.658v1.976a.659.659 0 0 0 .659.659h5.268a.659.659 0 0 0 .659-.659V34.9a.659.659 0 0 0-.659-.659H38.2V6.585ZM1.317 5.268V1.317h3.951v3.951Zm3.951 34.244H1.317v-3.951h3.951ZM34.244 34.9v1.976H6.585V34.9a.659.659 0 0 0-.659-.659H3.951V6.585h1.976a.659.659 0 0 0 .659-.659V3.951h27.658v1.976a.659.659 0 0 0 .659.659h1.976v27.658H34.9a.659.659 0 0 0-.656.656Zm5.268.659v3.951h-3.951v-3.949ZM35.561 5.268V1.317h3.951v3.951Z"/><path class="a" d="M28.318 10.537H12.513a.659.659 0 0 0-.659.659v5.268a.659.659 0 0 0 .659.659h1.235a.659.659 0 0 0 .634-.48l.606-2.154h3.452v12.656l-2.135.534a.659.659 0 0 0-.5.639v1.319a.659.659 0 0 0 .659.659h7.9a.659.659 0 0 0 .659-.659V28.32a.659.659 0 0 0-.5-.639l-2.135-.534V14.488h3.452l.606 2.154a.659.659 0 0 0 .634.48h1.235a.659.659 0 0 0 .659-.659v-5.268a.659.659 0 0 0-.656-.658Zm-.659 5.268h-.077l-.606-2.154a.659.659 0 0 0-.634-.48h-4.61a.659.659 0 0 0-.659.659v13.829a.659.659 0 0 0 .5.639l2.135.534v.144h-6.585v-.139l2.135-.534a.659.659 0 0 0 .5-.639V13.83a.659.659 0 0 0-.659-.659h-4.61a.659.659 0 0 0-.634.48l-.606 2.154h-.077v-3.951h14.482ZM28.976 31.61H11.854a.659.659 0 0 0 0 1.317h17.122a.659.659 0 1 0 0-1.317ZM23.049 33.586h-5.268a.659.659 0 1 0 0 1.317h5.268a.659.659 0 1 0 0-1.317Z"/></svg>
